# xmcd CD database file
#
# Track frame offsets:
#	150
#	17925
#	33150
#	45375
#	58650
#	68925
#	85500
#	103350
#	120075
#	136350
#	155162
#	166125
#
# Disc length: 2428 seconds
#
# Revision: 2
# Processed by: cddbd v1.5.1PL0 Copyright (c) Steve Scherf et al.
# Submitted via: CDex 1.51
#
DISCID=96097a0c
DTITLE=Racer X - Live Extreme Volume
DYEAR=1988
DGENRE=Hard Rock
TTITLE0=Loud And Clear
TTITLE1=Dangerous Love
TTITLE2=Bruce's Solo
TTITLE3=Gone Too Far
TTITLE4=John's Solo
TTITLE5=She Want's Control
TTITLE6=Scit Scat Wah
TTITLE7=Into The Night
TTITLE8=Paul's Solo
TTITLE9=Motor Man
TTITLE10=Scott's Solo
TTITLE11=Set The World On Fire
EXTD=YEAR: 1988
EXTT0=
EXTT1=
EXTT2=
EXTT3=
EXTT4=
EXTT5=
EXTT6=
EXTT7=
EXTT8=
EXTT9=
EXTT10=
EXTT11=
PLAYORDER=
